<?xml version="1.0" standalone="no"?>
<!DOCTYPE svg PUBLIC "-//W3C//DTD SVG 20010904//EN"
 "http://www.w3.org/TR/2001/REC-SVG-20010904/DTD/svg10.dtd">
<svg version="1.0" xmlns="http://www.w3.org/2000/svg"
 width="1024.000000pt" height="1024.000000pt" viewBox="0 0 1024.000000 1024.000000"
 preserveAspectRatio="xMidYMid meet">

<g transform="translate(0.000000,1024.000000) scale(0.100000,-0.100000)"
fill="#000000" stroke="none">
<path d="M7085 7606 c-159 -52 -338 -171 -540 -360 -38 -36 -73 -66 -78 -66
-4 0 -54 28 -110 62 -372 225 -942 347 -1395 297 -468 -51 -925 -281 -1292
-648 -416 -417 -623 -890 -648 -1484 l-7 -151 -80 -32 -80 -33 289 -1 289 0
48 -31 49 -31 97 69 c54 38 103 72 110 76 6 4 59 -16 118 -43 l107 -50 134 86
133 85 190 -61 190 -61 159 105 159 106 64 -21 c105 -35 106 -27 -23 -195
l-115 -149 -327 -3 -328 -2 -38 30 -39 31 -115 -66 c-63 -36 -121 -65 -128
-65 -7 0 -40 27 -74 61 l-61 61 -132 -57 -132 -56 -45 50 -45 50 -147 -51
c-81 -28 -150 -54 -154 -57 -4 -4 6 -64 22 -135 17 -71 29 -130 27 -132 -1 -1
-39 -16 -83 -33 -199 -77 -362 -236 -425 -416 -82 -235 -13 -430 187 -525 57
-28 83 -34 154 -38 102 -5 228 16 343 58 82 30 209 103 241 139 18 19 19 18
125 -87 59 -59 156 -145 214 -192 59 -46 107 -89 107 -96 0 -6 -17 -16 -39
-22 -48 -15 -90 -47 -102 -80 -6 -14 -14 -64 -19 -111 -5 -48 -17 -111 -26
-141 -26 -86 -25 -266 3 -356 20 -61 31 -78 82 -128 83 -78 153 -109 261 -114
284 -14 568 218 659 538 16 58 21 65 42 63 13 -1 75 -7 138 -13 68 -8 188 -10
300 -7 156 4 209 10 333 36 381 80 732 239 997 451 106 85 281 261 352 355
229 300 399 694 459 1062 l12 73 54 17 c29 9 52 18 50 20 -2 3 -499 42 -538
43 -4 0 -35 -40 -68 -90 l-60 -89 -201 69 -200 70 -185 -100 -184 -100 -94 59
c-93 60 -95 60 -177 63 l-83 3 241 222 241 222 87 -29 88 -30 103 96 102 95
61 -30 60 -31 288 136 c158 75 292 139 296 143 11 11 -42 165 -119 343 l-64
151 113 116 c119 122 197 231 267 369 37 76 97 241 114 316 l7 28 -48 -34
c-26 -20 -140 -100 -253 -180 -113 -80 -250 -177 -305 -217 l-100 -73 -30 38
c-16 21 -58 71 -93 111 l-62 72 205 340 c112 188 201 341 197 341 -4 -1 -38
-11 -77 -24z m-12 -68 c-147 -249 -600 -967 -908 -1438 -45 -69 -166 -257
-269 -417 -103 -161 -190 -293 -194 -293 -3 0 -33 23 -66 52 -34 28 -68 58
-78 65 -10 10 -18 11 -22 4 -4 -6 27 -46 68 -89 l76 -79 -258 -383 c-142 -211
-265 -387 -273 -391 -24 -12 -220 -52 -226 -45 -3 3 -14 119 -24 258 l-19 253
32 45 c142 200 1004 1336 1279 1685 350 444 404 500 632 652 81 53 252 152
265 153 2 0 -5 -15 -15 -32z m-1173 -343 c109 -30 251 -95 339 -154 33 -23 61
-44 61 -46 0 -4 -253 -329 -275 -354 -11 -11 -29 -7 -109 23 -315 118 -502
261 -530 405 -12 65 31 116 128 148 67 22 270 11 386 -22z m1675 -112 c-34
-92 -136 -283 -198 -369 -34 -48 -93 -119 -132 -159 -118 -120 -626 -598
-1000 -940 -127 -115 -264 -242 -305 -280 -125 -118 -346 -316 -479 -429 l-24
-21 16 25 c9 14 107 163 219 332 112 169 282 432 378 584 96 151 184 287 195
302 10 14 98 84 195 156 272 202 871 648 1015 756 72 54 132 96 134 94 2 -2
-4 -25 -14 -51z m-2635 -1034 c160 -37 306 -176 349 -333 9 -35 8 -41 -21 -77
-16 -21 -55 -54 -84 -73 l-54 -36 0 63 c0 168 -108 284 -276 295 -93 6 -158
-15 -222 -73 -110 -99 -133 -272 -50 -386 16 -22 27 -44 24 -47 -4 -3 -53 9
-111 28 l-104 34 -11 48 c-34 161 11 311 129 429 95 94 193 137 321 138 36 0
85 -4 110 -10z m0 -210 c94 -42 160 -139 160 -234 0 -78 -3 -79 -107 -44 l-92
30 -102 -71 c-56 -39 -115 -81 -131 -93 -30 -22 -30 -22 -45 -2 -56 74 -71
201 -32 282 25 51 105 126 151 140 56 18 148 15 198 -8z m2376 -902 c-132
-649 -597 -1227 -1205 -1497 -186 -82 -324 -124 -538 -161 -160 -28 -449 -30
-610 -5 -57 9 -105 16 -108 16 -3 0 -5 18 -5 39 0 56 -34 159 -72 215 -36 56
-124 124 -191 150 l-46 17 73 77 c152 158 405 482 573 732 104 155 140 197
263 306 l111 99 201 11 202 12 79 -49 c43 -27 81 -49 83 -49 3 0 55 29 117 64
l112 65 153 15 153 15 132 -49 c72 -28 135 -50 138 -50 3 0 27 32 53 70 25 39
47 70 49 71 1 0 70 10 152 22 136 20 150 21 153 6 2 -9 -8 -73 -22 -142z
m-2467 -189 l1 -58 -61 0 c-52 0 -60 2 -55 16 3 9 6 53 6 99 l0 83 48 53 47
53 6 -95 c4 -52 7 -120 8 -151z m-1421 162 c85 -6 202 -10 262 -10 101 0 110
-2 138 -25 36 -30 37 -30 72 -5 27 20 41 20 387 18 l358 -3 -80 -18 c-496
-114 -613 -159 -769 -299 l-64 -58 -25 43 c-37 62 -118 134 -190 168 -66 30
-200 54 -249 43 -25 -5 -28 -2 -38 38 -6 24 -15 58 -20 77 -12 44 -7 51 33 45
17 -2 101 -9 185 -14z m1262 -144 l0 -84 -57 -6 c-32 -4 -110 -16 -173 -27
-405 -70 -600 -188 -765 -464 -90 -150 -150 -223 -228 -278 -261 -186 -571
-203 -733 -41 -79 78 -107 170 -93 301 24 229 260 467 524 529 95 22 239 15
317 -15 108 -42 189 -138 222 -264 11 -40 16 -47 21 -32 17 53 45 92 100 142
119 108 258 173 489 229 163 39 370 90 374 93 1 0 2 -37 2 -83z m174 -197 l7
-70 -62 -87 c-328 -455 -524 -685 -674 -789 l-31 -21 -72 52 c-103 75 -265
220 -328 295 l-55 63 21 32 c11 17 42 69 68 115 105 187 268 315 488 384 139
44 431 93 565 96 l66 1 7 -71z m220 -111 c-220 -304 -390 -514 -553 -680
l-114 -118 45 0 c101 0 215 -58 269 -136 156 -227 34 -608 -256 -803 -110 -74
-171 -94 -285 -95 -84 -1 -102 2 -155 27 -76 36 -147 110 -177 185 -32 83 -32
259 1 352 13 36 27 102 30 148 9 110 25 130 122 159 134 41 302 189 511 449
87 109 276 363 355 477 22 32 40 47 55 48 13 0 52 8 88 18 105 29 107 29 64
-31z"/>
<path d="M5257 5347 c-42 -14 -94 -59 -108 -94 -35 -93 29 -200 129 -219 106
-20 208 84 188 191 -9 47 -67 112 -109 120 -18 4 -39 8 -47 10 -8 2 -32 -2
-53 -8z m117 -58 c64 -50 66 -132 5 -184 -54 -45 -133 -30 -176 34 -31 46 -23
95 23 139 27 26 42 32 78 32 29 0 52 -7 70 -21z"/>
<path d="M3157 4595 c-123 -34 -275 -145 -347 -253 -44 -67 -74 -171 -67 -237
18 -180 184 -283 386 -241 244 51 456 260 469 463 4 64 1 79 -22 127 -32 66
-91 119 -154 140 -56 19 -197 20 -265 1z m237 -49 c56 -17 111 -57 130 -94 22
-44 29 -116 16 -171 -19 -81 -32 -81 -78 -4 -43 74 -100 186 -125 246 -19 43
-15 44 57 23z m-150 -69 c18 -40 72 -142 121 -227 l88 -154 -44 -40 c-160
-143 -356 -195 -487 -130 -206 102 -173 345 71 530 73 55 151 94 190 94 25 0
31 -8 61 -73z"/>
<path d="M4295 3543 c-110 -40 -200 -114 -277 -228 -64 -96 -82 -155 -82 -280
-1 -100 1 -114 26 -160 104 -197 350 -201 544 -10 237 233 255 555 39 668 -56
29 -182 34 -250 10z m199 -45 c24 -7 59 -30 84 -55 47 -48 56 -78 20 -68 -54
16 -168 60 -223 88 -51 25 -57 31 -40 38 31 12 113 10 159 -3z m-154 -131 c41
-19 128 -52 194 -73 l118 -39 -5 -53 c-15 -145 -163 -337 -309 -402 -99 -43
-244 -32 -295 22 -47 50 -67 116 -68 219 0 93 1 98 44 185 32 64 63 107 112
157 l67 69 34 -25 c19 -15 68 -42 108 -60z"/>
</g>
</svg>
